<svg xmlns="http://www.w3.org/2000/svg" viewBox="0 0 760 504" width="760" height="504" class="viz" font-family="system-ui,-apple-system,Segoe UI,sans-serif"><style>
  .viz { color-scheme: light; --surface-1:#fcfcfb; --text-primary:#0b0b0b;
         --text-secondary:#52514e; --grid:#e6e5e1;
         --quarkus:#2a78d6; --spring:#eb6834; --other:#1baf7a; }
  @media (prefers-color-scheme: dark) {
    .viz { color-scheme: dark; --surface-1:#1a1a19; --text-primary:#ffffff;
           --text-secondary:#c3c2b7; --grid:#333331;
           --quarkus:#3987e5; --spring:#d95926; --other:#199e70; }
  }</style><rect width="760" height="504" fill="var(--surface-1)"/><text x="170" y="30" fill="var(--text-primary)" font-size="17" font-weight="600">Cost and latency spread under the open-loop load test</text><text x="170" y="50" fill="var(--text-secondary)" font-size="12.5">2 cores · MALLOC_ARENA_MAX=2 · constantRate, 2000 req/s target · ranked by cost</text><text x="158" y="146.0" fill="var(--text-primary)" font-size="11.5" text-anchor="end">quarkus3-virtual (JIT)</text><text x="158" y="192.0" fill="var(--text-primary)" font-size="11.5" text-anchor="end">rust-orm</text><text x="158" y="238.0" fill="var(--text-primary)" font-size="11.5" text-anchor="end">spring4-virtual (JIT)</text><text x="158" y="284.0" fill="var(--text-primary)" font-size="11.5" text-anchor="end">go-orm</text><text x="158" y="330.0" fill="var(--text-primary)" font-size="11.5" text-anchor="end">quarkus3-native</text><text x="158" y="376.0" fill="var(--text-primary)" font-size="11.5" text-anchor="end">spring4-native</text><text x="158" y="422.0" fill="var(--text-primary)" font-size="11.5" text-anchor="end">nodejs-orm (JIT)</text><text x="170.0" y="106" fill="var(--text-primary)" font-size="12" font-weight="600">Monthly cost, 1000 req/s ($)</text><line x1="170.0" y1="112" x2="170.0" y2="434" stroke="var(--grid)" stroke-width="1"/><line x1="170.0" y1="112" x2="170.0" y2="434" stroke="var(--grid)" stroke-width="1"/><text x="170.0" y="452" fill="var(--text-secondary)" font-size="10.5" text-anchor="middle">$0</text><line x1="270.6" y1="112" x2="270.6" y2="434" stroke="var(--grid)" stroke-width="1"/><text x="270.6" y="452" fill="var(--text-secondary)" font-size="10.5" text-anchor="middle">$20</text><line x1="371.2" y1="112" x2="371.2" y2="434" stroke="var(--grid)" stroke-width="1"/><text x="371.2" y="452" fill="var(--text-secondary)" font-size="10.5" text-anchor="middle">$40</text><path d="M170.0,138.0 Q170.0,134.0 174.0,134.0 L231.2,134.0 Q235.2,134.0 235.2,138.0 L235.2,146.0 Q235.2,150.0 231.2,150.0 L174.0,150.0 Q170.0,150.0 170.0,146.0 Z" fill="var(--quarkus)"><title>quarkus3-virtual · -Xmx 48m · cost $12.97</title></path><circle cx="235.2" cy="142.0" r="5.0" fill="var(--quarkus)" stroke="var(--surface-1)" stroke-width="2"><title>quarkus3-virtual · -Xmx 48m · cost $12.97</title></circle><path d="M170.0,184.0 Q170.0,180.0 174.0,180.0 L231.4,180.0 Q235.4,180.0 235.4,184.0 L235.4,192.0 Q235.4,196.0 231.4,196.0 L174.0,196.0 Q170.0,196.0 170.0,192.0 Z" fill="var(--other)"><title>rust-orm · — · cost $13.01</title></path><rect x="230.9" y="183.5" width="9.0" height="9.0" rx="1.5" fill="var(--other)" stroke="var(--surface-1)" stroke-width="2"><title>rust-orm · — · cost $13.01</title></rect><path d="M170.0,230.0 Q170.0,226.0 174.0,226.0 L246.6,226.0 Q250.6,226.0 250.6,230.0 L250.6,238.0 Q250.6,242.0 246.6,242.0 L174.0,242.0 Q170.0,242.0 170.0,238.0 Z" fill="var(--spring)"><title>spring4-virtual · -Xmx 128m · cost $16.02</title></path><circle cx="250.6" cy="234.0" r="5.0" fill="var(--spring)" stroke="var(--surface-1)" stroke-width="2"><title>spring4-virtual · -Xmx 128m · cost $16.02</title></circle><path d="M170.0,276.0 Q170.0,272.0 174.0,272.0 L247.9,272.0 Q251.9,272.0 251.9,276.0 L251.9,284.0 Q251.9,288.0 247.9,288.0 L174.0,288.0 Q170.0,288.0 170.0,284.0 Z" fill="var(--other)"><title>go-orm · — · cost $16.29</title></path><rect x="247.4" y="275.5" width="9.0" height="9.0" rx="1.5" fill="var(--other)" stroke="var(--surface-1)" stroke-width="2"><title>go-orm · — · cost $16.29</title></rect><path d="M170.0,322.0 Q170.0,318.0 174.0,318.0 L258.7,318.0 Q262.7,318.0 262.7,322.0 L262.7,330.0 Q262.7,334.0 258.7,334.0 L174.0,334.0 Q170.0,334.0 170.0,330.0 Z" fill="var(--quarkus)"><title>quarkus3-native · -Xmx 64m · cost $18.42</title></path><rect x="258.2" y="321.5" width="9.0" height="9.0" rx="1.5" fill="var(--quarkus)" stroke="var(--surface-1)" stroke-width="2"><title>quarkus3-native · -Xmx 64m · cost $18.42</title></rect><path d="M170.0,368.0 Q170.0,364.0 174.0,364.0 L324.3,364.0 Q328.3,364.0 328.3,368.0 L328.3,376.0 Q328.3,380.0 324.3,380.0 L174.0,380.0 Q170.0,380.0 170.0,376.0 Z" fill="var(--spring)"><title>spring4-native · -Xmx 256m, target-rate 1500 · cost $31.47</title></path><rect x="323.8" y="367.5" width="9.0" height="9.0" rx="1.5" fill="var(--spring)" stroke="var(--surface-1)" stroke-width="2"><title>spring4-native · -Xmx 256m, target-rate 1500 · cost $31.47</title></rect><path d="M170.0,414.0 Q170.0,410.0 174.0,410.0 L416.5,410.0 Q420.5,410.0 420.5,414.0 L420.5,422.0 Q420.5,426.0 416.5,426.0 L174.0,426.0 Q170.0,426.0 170.0,422.0 Z" fill="var(--other)"><title>nodejs-orm · target-rate 500 · cost $49.79</title></path><circle cx="420.5" cy="418.0" r="5.0" fill="var(--other)" stroke="var(--surface-1)" stroke-width="2"><title>nodejs-orm · target-rate 500 · cost $49.79</title></circle><text x="473.0" y="106" fill="var(--text-primary)" font-size="12" font-weight="600">Latency, p50→p99.9 (ms)</text><line x1="473.0" y1="112" x2="473.0" y2="434" stroke="var(--grid)" stroke-width="1"/><line x1="473.0" y1="112" x2="473.0" y2="434" stroke="var(--grid)" stroke-width="1"/><text x="473.0" y="452" fill="var(--text-secondary)" font-size="10.5" text-anchor="middle">0</text><line x1="561.0" y1="112" x2="561.0" y2="434" stroke="var(--grid)" stroke-width="1"/><text x="561.0" y="452" fill="var(--text-secondary)" font-size="10.5" text-anchor="middle">100</text><line x1="649.1" y1="112" x2="649.1" y2="434" stroke="var(--grid)" stroke-width="1"/><text x="649.1" y="452" fill="var(--text-secondary)" font-size="10.5" text-anchor="middle">200</text><line x1="474.6" y1="142.0" x2="495.4" y2="142.0" stroke="var(--quarkus)" stroke-width="2"/><circle cx="474.6" cy="142.0" r="5.0" fill="var(--surface-1)" stroke="var(--quarkus)" stroke-width="2"><title>quarkus3-virtual · p50 1.79 ms</title></circle><circle cx="479.3" cy="142.0" r="5.0" fill="var(--quarkus)" stroke="var(--surface-1)" stroke-width="2"><title>quarkus3-virtual · p99 7.17 ms</title></circle><line x1="495.4" y1="137.0" x2="495.4" y2="147.0" stroke="var(--quarkus)" stroke-width="2"><title>quarkus3-virtual · p99.9 25.41 ms</title></line><line x1="477.4" y1="188.0" x2="617.0" y2="188.0" stroke="var(--other)" stroke-width="2"/><circle cx="477.4" cy="188.0" r="5.0" fill="var(--surface-1)" stroke="var(--other)" stroke-width="2"><title>rust-orm · p50 4.98 ms</title></circle><circle cx="571.0" cy="188.0" r="5.0" fill="var(--other)" stroke="var(--surface-1)" stroke-width="2"><title>rust-orm · p99 111.28 ms</title></circle><line x1="617.0" y1="183.0" x2="617.0" y2="193.0" stroke="var(--other)" stroke-width="2"><title>rust-orm · p99.9 163.58 ms</title></line><line x1="474.7" y1="234.0" x2="540.7" y2="234.0" stroke="var(--spring)" stroke-width="2"/><circle cx="474.7" cy="234.0" r="5.0" fill="var(--surface-1)" stroke="var(--spring)" stroke-width="2"><title>spring4-virtual · p50 1.98 ms</title></circle><circle cx="485.6" cy="234.0" r="5.0" fill="var(--spring)" stroke="var(--surface-1)" stroke-width="2"><title>spring4-virtual · p99 14.33 ms</title></circle><line x1="540.7" y1="229.0" x2="540.7" y2="239.0" stroke="var(--spring)" stroke-width="2"><title>spring4-virtual · p99.9 76.94 ms</title></line><line x1="485.1" y1="280.0" x2="620.9" y2="280.0" stroke="var(--other)" stroke-width="2"/><circle cx="485.1" cy="280.0" r="5.0" fill="var(--surface-1)" stroke="var(--other)" stroke-width="2"><title>go-orm · p50 13.7 ms</title></circle><circle cx="550.0" cy="280.0" r="5.0" fill="var(--other)" stroke="var(--surface-1)" stroke-width="2"><title>go-orm · p99 87.47 ms</title></circle><line x1="620.9" y1="275.0" x2="620.9" y2="285.0" stroke="var(--other)" stroke-width="2"><title>go-orm · p99.9 167.95 ms</title></line><line x1="475.2" y1="326.0" x2="514.2" y2="326.0" stroke="var(--quarkus)" stroke-width="2"/><circle cx="475.2" cy="326.0" r="5.0" fill="var(--surface-1)" stroke="var(--quarkus)" stroke-width="2"><title>quarkus3-native · p50 2.5 ms</title></circle><circle cx="491.7" cy="326.0" r="5.0" fill="var(--quarkus)" stroke="var(--surface-1)" stroke-width="2"><title>quarkus3-native · p99 21.23 ms</title></circle><line x1="514.2" y1="321.0" x2="514.2" y2="331.0" stroke="var(--quarkus)" stroke-width="2"><title>quarkus3-native · p99.9 46.75 ms</title></line><line x1="479.0" y1="372.0" x2="621.0" y2="372.0" stroke="var(--spring)" stroke-width="2"/><circle cx="479.0" cy="372.0" r="5.0" fill="var(--surface-1)" stroke="var(--spring)" stroke-width="2"><title>spring4-native · p50 6.83 ms</title></circle><circle cx="554.8" cy="372.0" r="5.0" fill="var(--spring)" stroke="var(--surface-1)" stroke-width="2"><title>spring4-native · p99 92.97 ms</title></circle><line x1="621.0" y1="367.0" x2="621.0" y2="377.0" stroke="var(--spring)" stroke-width="2"><title>spring4-native · p99.9 168.12 ms</title></line><line x1="476.2" y1="418.0" x2="723.5" y2="418.0" stroke="var(--other)" stroke-width="2"/><circle cx="476.2" cy="418.0" r="5.0" fill="var(--surface-1)" stroke="var(--other)" stroke-width="2"><title>nodejs-orm · p50 3.66 ms</title></circle><circle cx="693.0" cy="418.0" r="5.0" fill="var(--other)" stroke="var(--surface-1)" stroke-width="2"><title>nodejs-orm · p99 249.91 ms</title></circle><line x1="723.5" y1="413.0" x2="723.5" y2="423.0" stroke="var(--other)" stroke-width="2"><title>nodejs-orm · p99.9 284.51 ms</title></line><text x="170" y="478" fill="var(--text-secondary)" font-size="11">○ p50 · ● p99 · ┃ p99.9, joined by a line</text><text x="170" y="506" fill="var(--text-primary)" font-size="11.5" font-weight="600">Family</text><circle cx="235.0" cy="502.0" r="6.0" fill="var(--quarkus)" stroke="var(--surface-1)" stroke-width="2"></circle><text x="248" y="506" fill="var(--text-secondary)" font-size="11.5">Quarkus 3</text><circle cx="385.0" cy="502.0" r="6.0" fill="var(--spring)" stroke="var(--surface-1)" stroke-width="2"></circle><text x="398" y="506" fill="var(--text-secondary)" font-size="11.5">Spring Boot 4</text><circle cx="535.0" cy="502.0" r="6.0" fill="var(--other)" stroke="var(--surface-1)" stroke-width="2"></circle><text x="548" y="506" fill="var(--text-secondary)" font-size="11.5">Go · Rust · Node</text><text x="170" y="530" fill="var(--text-primary)" font-size="11.5" font-weight="600">Execution</text><rect x="229.6" y="520.6" width="10.8" height="10.8" rx="1.5" fill="var(--text-secondary)" stroke="var(--surface-1)" stroke-width="2"></rect><text x="248" y="530" fill="var(--text-secondary)" font-size="11.5">Native binary</text><circle cx="385.0" cy="526.0" r="6.0" fill="var(--text-secondary)" stroke="var(--surface-1)" stroke-width="2"></circle><text x="398" y="530" fill="var(--text-secondary)" font-size="11.5">Virtual machine</text></svg>