<svg xmlns="http://www.w3.org/2000/svg" viewBox="0 0 900 530" width="900" height="530" class="viz" font-family="system-ui,-apple-system,Segoe UI,sans-serif"><style>
  .viz { color-scheme: light; --surface-1:#fcfcfb; --text-primary:#0b0b0b;
         --text-secondary:#52514e; --grid:#e6e5e1;
         --quarkus:#2a78d6; --spring:#eb6834; --other:#1baf7a; }
  @media (prefers-color-scheme: dark) {
    .viz { color-scheme: dark; --surface-1:#1a1a19; --text-primary:#ffffff;
           --text-secondary:#c3c2b7; --grid:#333331;
           --quarkus:#3987e5; --spring:#d95926; --other:#199e70; }
  }</style><rect width="900" height="530" fill="var(--surface-1)"/><text x="68" y="30" fill="var(--text-primary)" font-size="17" font-weight="600">Peak throughput reached by each runtime</text><text x="68" y="50" fill="var(--text-secondary)" font-size="12.5">Each runtime's best measured configuration · 3 iterations per run · 1 core dedicated to the application</text><text x="68" y="67" fill="var(--text-secondary)" font-size="11.5">The rung that maximises throughput is not the one that maximises density: raw speed wants a generous heap, efficiency a tight one</text><line x1="68" y1="434.0" x2="874" y2="434.0" stroke="var(--grid)" stroke-width="1"/><text x="58" y="438.0" fill="var(--text-secondary)" font-size="11.5" text-anchor="end">0</text><line x1="68" y1="371.6" x2="874" y2="371.6" stroke="var(--grid)" stroke-width="1"/><text x="58" y="375.6" fill="var(--text-secondary)" font-size="11.5" text-anchor="end">1 000</text><line x1="68" y1="309.2" x2="874" y2="309.2" stroke="var(--grid)" stroke-width="1"/><text x="58" y="313.2" fill="var(--text-secondary)" font-size="11.5" text-anchor="end">2 000</text><line x1="68" y1="246.8" x2="874" y2="246.8" stroke="var(--grid)" stroke-width="1"/><text x="58" y="250.8" fill="var(--text-secondary)" font-size="11.5" text-anchor="end">3 000</text><line x1="68" y1="184.4" x2="874" y2="184.4" stroke="var(--grid)" stroke-width="1"/><text x="58" y="188.4" fill="var(--text-secondary)" font-size="11.5" text-anchor="end">4 000</text><line x1="68" y1="122.0" x2="874" y2="122.0" stroke="var(--grid)" stroke-width="1"/><text x="58" y="126.0" fill="var(--text-secondary)" font-size="11.5" text-anchor="end">5 000</text><path d="M91.2,434.0 L91.2,197.3 Q91.2,193.3 95.2,193.3 L175.2,193.3 Q179.2,193.3 179.2,197.3 L179.2,434.0 Z" fill="var(--quarkus)"><title>quarkus3-virtual · -Xmx 96m · 3857 req/s · 328.0 MiB · 12.06 tps/MiB</title></path><text x="135.2" y="185.3" fill="var(--text-primary)" font-size="12.5" font-weight="600" text-anchor="middle">3 857</text><text x="135.2" y="454" fill="var(--text-primary)" font-size="11.5" text-anchor="middle">quarkus3-virtual</text><text x="135.2" y="470" fill="var(--text-secondary)" font-size="10.5" text-anchor="middle">-Xmx 96m</text><text x="135.2" y="484" fill="var(--text-secondary)" font-size="10.5" text-anchor="middle">328 MiB · 12.1 tps/MiB</text><path d="M225.5,434.0 L225.5,263.7 Q225.5,259.7 229.5,259.7 L309.5,259.7 Q313.5,259.7 313.5,263.7 L313.5,434.0 Z" fill="var(--spring)"><title>spring4-virtual · -Xmx 128m · 2793 req/s · 430.1 MiB · 6.81 tps/MiB</title></path><text x="269.5" y="251.7" fill="var(--text-primary)" font-size="12.5" font-weight="600" text-anchor="middle">2 793</text><text x="269.5" y="454" fill="var(--text-primary)" font-size="11.5" text-anchor="middle">spring4-virtual</text><text x="269.5" y="470" fill="var(--text-secondary)" font-size="10.5" text-anchor="middle">-Xmx 128m</text><text x="269.5" y="484" fill="var(--text-secondary)" font-size="10.5" text-anchor="middle">430 MiB · 6.8 tps/MiB</text><path d="M359.8,434.0 L359.8,299.5 Q359.8,295.5 363.8,295.5 L443.8,295.5 Q447.8,295.5 447.8,299.5 L447.8,434.0 Z" fill="var(--other)"><title>go-orm ·  · 2220 req/s · 47.5 MiB · 47.17 tps/MiB</title></path><text x="403.8" y="287.5" fill="var(--text-primary)" font-size="12.5" font-weight="600" text-anchor="middle">2 220</text><text x="403.8" y="454" fill="var(--text-primary)" font-size="11.5" text-anchor="middle">go-orm</text><text x="403.8" y="470" fill="var(--text-secondary)" font-size="10.5" text-anchor="middle"></text><text x="403.8" y="484" fill="var(--text-secondary)" font-size="10.5" text-anchor="middle">48 MiB · 47.2 tps/MiB</text><path d="M494.2,434.0 L494.2,318.1 Q494.2,314.1 498.2,314.1 L578.2,314.1 Q582.2,314.1 582.2,318.1 L582.2,434.0 Z" fill="var(--quarkus)"><title>quarkus3-native · -Xmx 128m · 1922 req/s · 162.6 MiB · 11.89 tps/MiB</title></path><text x="538.2" y="306.1" fill="var(--text-primary)" font-size="12.5" font-weight="600" text-anchor="middle">1 922</text><text x="538.2" y="454" fill="var(--text-primary)" font-size="11.5" text-anchor="middle">quarkus3-native</text><text x="538.2" y="470" fill="var(--text-secondary)" font-size="10.5" text-anchor="middle">-Xmx 128m</text><text x="538.2" y="484" fill="var(--text-secondary)" font-size="10.5" text-anchor="middle">163 MiB · 11.9 tps/MiB</text><path d="M628.5,434.0 L628.5,388.9 Q628.5,384.9 632.5,384.9 L712.5,384.9 Q716.5,384.9 716.5,388.9 L716.5,434.0 Z" fill="var(--spring)"><title>spring4-native · -Xmx 96m · 787 req/s · 241.8 MiB · 3.29 tps/MiB</title></path><text x="672.5" y="376.9" fill="var(--text-primary)" font-size="12.5" font-weight="600" text-anchor="middle">787</text><text x="672.5" y="454" fill="var(--text-primary)" font-size="11.5" text-anchor="middle">spring4-native</text><text x="672.5" y="470" fill="var(--text-secondary)" font-size="10.5" text-anchor="middle">-Xmx 96m</text><text x="672.5" y="484" fill="var(--text-secondary)" font-size="10.5" text-anchor="middle">242 MiB · 3.3 tps/MiB</text><path d="M762.8,434.0 L762.8,405.5 Q762.8,401.5 766.8,401.5 L846.8,401.5 Q850.8,401.5 850.8,405.5 L850.8,434.0 Z" fill="var(--other)"><title>nodejs-orm ·  · 521 req/s · 219.9 MiB · 2.47 tps/MiB</title></path><text x="806.8" y="393.5" fill="var(--text-primary)" font-size="12.5" font-weight="600" text-anchor="middle">521</text><text x="806.8" y="454" fill="var(--text-primary)" font-size="11.5" text-anchor="middle">nodejs-orm</text><text x="806.8" y="470" fill="var(--text-secondary)" font-size="10.5" text-anchor="middle"></text><text x="806.8" y="484" fill="var(--text-secondary)" font-size="10.5" text-anchor="middle">220 MiB · 2.5 tps/MiB</text><text transform="translate(18,278) rotate(-90)" fill="var(--text-secondary)" font-size="12" text-anchor="middle">Throughput (req/s)</text><rect x="72" y="98" width="10" height="10" rx="2" fill="var(--quarkus)"/><text x="88" y="107" fill="var(--text-secondary)" font-size="11.5">Quarkus 3</text><rect x="222" y="98" width="10" height="10" rx="2" fill="var(--spring)"/><text x="238" y="107" fill="var(--text-secondary)" font-size="11.5">Spring Boot 4</text><rect x="372" y="98" width="10" height="10" rx="2" fill="var(--other)"/><text x="388" y="107" fill="var(--text-secondary)" font-size="11.5">Go · Rust · Node</text></svg>